<svg id="visual" viewBox="0 0 960 300" width="960" height="300" xmlns="http://www.w3.org/2000/svg" xmlns:xlink="http://www.w3.org/1999/xlink" version="1.1"><rect x="0" y="0" width="960" height="300" fill="none"></rect><path d="M0 169L32 168.2C64 167.3 128 165.7 192 158.7C256 151.7 320 139.3 384 137.7C448 136 512 145 576 146.2C640 147.3 704 140.7 768 142.7C832 144.7 896 155.3 928 160.7L960 166L960 0L928 0C896 0 832 0 768 0C704 0 640 0 576 0C512 0 448 0 384 0C320 0 256 0 192 0C128 0 64 0 32 0L0 0Z" fill="#9c0fb5"></path><path d="M0 133L32 129C64 125 128 117 192 110.3C256 103.7 320 98.3 384 98.5C448 98.7 512 104.3 576 111C640 117.7 704 125.3 768 127.5C832 129.7 896 126.3 928 124.7L960 123L960 0L928 0C896 0 832 0 768 0C704 0 640 0 576 0C512 0 448 0 384 0C320 0 256 0 192 0C128 0 64 0 32 0L0 0Z" fill="#a339c2"></path><path d="M0 79L32 85.8C64 92.7 128 106.3 192 105C256 103.7 320 87.3 384 82.3C448 77.3 512 83.7 576 85.5C640 87.3 704 84.7 768 85.3C832 86 896 90 928 92L960 94L960 0L928 0C896 0 832 0 768 0C704 0 640 0 576 0C512 0 448 0 384 0C320 0 256 0 192 0C128 0 64 0 32 0L0 0Z" fill="#ab54cf"></path><path d="M0 87L32 82C64 77 128 67 192 63.8C256 60.7 320 64.3 384 65.3C448 66.3 512 64.7 576 67.3C640 70 704 77 768 77.2C832 77.3 896 70.7 928 67.3L960 64L960 0L928 0C896 0 832 0 768 0C704 0 640 0 576 0C512 0 448 0 384 0C320 0 256 0 192 0C128 0 64 0 32 0L0 0Z" fill="#b36bdb"></path><path d="M0 40L32 42C64 44 128 48 192 49.7C256 51.3 320 50.7 384 50.2C448 49.7 512 49.3 576 47.5C640 45.7 704 42.3 768 43.2C832 44 896 49 928 51.5L960 54L960 0L928 0C896 0 832 0 768 0C704 0 640 0 576 0C512 0 448 0 384 0C320 0 256 0 192 0C128 0 64 0 32 0L0 0Z" fill="#bb81e6"></path></svg>