<svg id="visual" viewBox="0 0 960 300" width="960" height="300" xmlns="http://www.w3.org/2000/svg" xmlns:xlink="http://www.w3.org/1999/xlink" version="1.1"><path d="M0 189L20 176.3C40 163.7 80 138.3 120 128C160 117.7 200 122.3 240 140.7C280 159 320 191 360 185.3C400 179.7 440 136.3 480 132.7C520 129 560 165 600 169.7C640 174.3 680 147.7 720 143.7C760 139.7 800 158.3 840 172.5C880 186.7 920 196.3 940 201.2L960 206L960 301L940 301C920 301 880 301 840 301C800 301 760 301 720 301C680 301 640 301 600 301C560 301 520 301 480 301C440 301 400 301 360 301C320 301 280 301 240 301C200 301 160 301 120 301C80 301 40 301 20 301L0 301Z" fill="#bb81e6" stroke-linecap="round" stroke-linejoin="miter"></path></svg>