<svg id="visual" viewBox="0 0 960 300" width="960" height="300" xmlns="http://www.w3.org/2000/svg" xmlns:xlink="http://www.w3.org/1999/xlink" version="1.1"><rect x="0" y="0" width="960" height="300" fill="none"></rect><path d="M0 101L20 107.8C40 114.7 80 128.3 120 133.5C160 138.7 200 135.3 240 143C280 150.7 320 169.3 360 171C400 172.7 440 157.3 480 141.5C520 125.7 560 109.3 600 120.7C640 132 680 171 720 171.3C760 171.7 800 133.3 840 121C880 108.7 920 122.3 940 129.2L960 136L960 0L940 0C920 0 880 0 840 0C800 0 760 0 720 0C680 0 640 0 600 0C560 0 520 0 480 0C440 0 400 0 360 0C320 0 280 0 240 0C200 0 160 0 120 0C80 0 40 0 20 0L0 0Z" fill="#bb81e6" stroke-linecap="round" stroke-linejoin="miter"></path></svg>